<svg xmlns="http://www.w3.org/2000/svg" viewBox="0 0 800 600" width="800" height="600" role="img">
  <rect width="800" height="600" fill="#14122a"/>
  
  <circle cx="60" cy="60" r="2.5" fill="#ffffff" opacity="0.07"/><circle cx="60" cy="110" r="2.5" fill="#ffffff" opacity="0.07"/><circle cx="60" cy="160" r="2.5" fill="#ffffff" opacity="0.07"/><circle cx="60" cy="210" r="2.5" fill="#ffffff" opacity="0.07"/><circle cx="60" cy="260" r="2.5" fill="#ffffff" opacity="0.07"/><circle cx="60" cy="310" r="2.5" fill="#ffffff" opacity="0.07"/><circle cx="60" cy="360" r="2.5" fill="#ffffff" opacity="0.07"/><circle cx="60" cy="410" r="2.5" fill="#ffffff" opacity="0.07"/><circle cx="60" cy="460" r="2.5" fill="#ffffff" opacity="0.07"/><circle cx="60" cy="510" r="2.5" fill="#ffffff" opacity="0.07"/><circle cx="60" cy="560" r="2.5" fill="#ffffff" opacity="0.07"/><circle cx="110" cy="60" r="2.5" fill="#ffffff" opacity="0.07"/><circle cx="110" cy="110" r="2.5" fill="#ffffff" opacity="0.07"/><circle cx="110" cy="160" r="2.5" fill="#ffffff" opacity="0.07"/><circle cx="110" cy="210" r="2.5" fill="#ffffff" opacity="0.07"/><circle cx="110" cy="260" r="2.5" fill="#ffffff" opacity="0.07"/><circle cx="110" cy="310" r="2.5" fill="#ffffff" opacity="0.07"/><circle cx="110" cy="360" r="2.5" fill="#ffffff" opacity="0.07"/><circle cx="110" cy="410" r="2.5" fill="#ffffff" opacity="0.07"/><circle cx="110" cy="460" r="2.5" fill="#ffffff" opacity="0.07"/><circle cx="110" cy="510" r="2.5" fill="#ffffff" opacity="0.07"/><circle cx="110" cy="560" r="2.5" fill="#ffffff" opacity="0.07"/><circle cx="160" cy="60" r="2.5" fill="#ffffff" opacity="0.07"/><circle cx="160" cy="110" r="2.5" fill="#ffffff" opacity="0.07"/><circle cx="160" cy="160" r="2.5" fill="#ffffff" opacity="0.07"/><circle cx="160" cy="210" r="2.5" fill="#ffffff" opacity="0.07"/><circle cx="160" cy="260" r="2.5" fill="#ffffff" opacity="0.07"/><circle cx="160" cy="310" r="2.5" fill="#ffffff" opacity="0.07"/><circle cx="160" cy="360" r="2.5" fill="#ffffff" opacity="0.07"/><circle cx="160" cy="410" r="2.5" fill="#ffffff" opacity="0.07"/><circle cx="160" cy="460" r="2.5" fill="#ffffff" opacity="0.07"/><circle cx="160" cy="510" r="2.5" fill="#ffffff" opacity="0.07"/><circle cx="160" cy="560" r="2.5" fill="#ffffff" opacity="0.07"/><circle cx="210" cy="60" r="2.5" fill="#ffffff" opacity="0.07"/><circle cx="210" cy="110" r="2.5" fill="#ffffff" opacity="0.07"/><circle cx="210" cy="160" r="2.5" fill="#ffffff" opacity="0.07"/><circle cx="210" cy="210" r="2.5" fill="#ffffff" opacity="0.07"/><circle cx="210" cy="260" r="2.5" fill="#ffffff" opacity="0.07"/><circle cx="210" cy="310" r="2.5" fill="#ffffff" opacity="0.07"/><circle cx="210" cy="360" r="2.5" fill="#ffffff" opacity="0.07"/><circle cx="210" cy="410" r="2.5" fill="#ffffff" opacity="0.07"/><circle cx="210" cy="460" r="2.5" fill="#ffffff" opacity="0.07"/><circle cx="210" cy="510" r="2.5" fill="#ffffff" opacity="0.07"/><circle cx="210" cy="560" r="2.5" fill="#ffffff" opacity="0.07"/><circle cx="260" cy="60" r="2.5" fill="#ffffff" opacity="0.07"/><circle cx="260" cy="110" r="2.5" fill="#ffffff" opacity="0.07"/><circle cx="260" cy="160" r="2.5" fill="#ffffff" opacity="0.07"/><circle cx="260" cy="210" r="2.5" fill="#ffffff" opacity="0.07"/><circle cx="260" cy="260" r="2.5" fill="#ffffff" opacity="0.07"/><circle cx="260" cy="310" r="2.5" fill="#ffffff" opacity="0.07"/><circle cx="260" cy="360" r="2.5" fill="#ffffff" opacity="0.07"/><circle cx="260" cy="410" r="2.5" fill="#ffffff" opacity="0.07"/><circle cx="260" cy="460" r="2.5" fill="#ffffff" opacity="0.07"/><circle cx="260" cy="510" r="2.5" fill="#ffffff" opacity="0.07"/><circle cx="260" cy="560" r="2.5" fill="#ffffff" opacity="0.07"/><circle cx="310" cy="60" r="2.5" fill="#ffffff" opacity="0.07"/><circle cx="310" cy="110" r="2.5" fill="#ffffff" opacity="0.07"/><circle cx="310" cy="160" r="2.5" fill="#ffffff" opacity="0.07"/><circle cx="310" cy="210" r="2.5" fill="#ffffff" opacity="0.07"/><circle cx="310" cy="260" r="2.5" fill="#ffffff" opacity="0.07"/><circle cx="310" cy="310" r="2.5" fill="#ffffff" opacity="0.07"/><circle cx="310" cy="360" r="2.5" fill="#ffffff" opacity="0.07"/><circle cx="310" cy="410" r="2.5" fill="#ffffff" opacity="0.07"/><circle cx="310" cy="460" r="2.5" fill="#ffffff" opacity="0.07"/><circle cx="310" cy="510" r="2.5" fill="#ffffff" opacity="0.07"/><circle cx="310" cy="560" r="2.5" fill="#ffffff" opacity="0.07"/><circle cx="360" cy="60" r="2.5" fill="#ffffff" opacity="0.07"/><circle cx="360" cy="110" r="2.5" fill="#ffffff" opacity="0.07"/><circle cx="360" cy="160" r="2.5" fill="#ffffff" opacity="0.07"/><circle cx="360" cy="210" r="2.5" fill="#ffffff" opacity="0.07"/><circle cx="360" cy="260" r="2.5" fill="#ffffff" opacity="0.07"/><circle cx="360" cy="310" r="2.5" fill="#ffffff" opacity="0.07"/><circle cx="360" cy="360" r="2.5" fill="#ffffff" opacity="0.07"/><circle cx="360" cy="410" r="2.5" fill="#ffffff" opacity="0.07"/><circle cx="360" cy="460" r="2.5" fill="#ffffff" opacity="0.07"/><circle cx="360" cy="510" r="2.5" fill="#ffffff" opacity="0.07"/><circle cx="360" cy="560" r="2.5" fill="#ffffff" opacity="0.07"/><circle cx="410" cy="60" r="2.5" fill="#ffffff" opacity="0.07"/><circle cx="410" cy="110" r="2.5" fill="#ffffff" opacity="0.07"/><circle cx="410" cy="160" r="2.5" fill="#ffffff" opacity="0.07"/><circle cx="410" cy="210" r="2.5" fill="#ffffff" opacity="0.07"/><circle cx="410" cy="260" r="2.5" fill="#ffffff" opacity="0.07"/><circle cx="410" cy="310" r="2.5" fill="#ffffff" opacity="0.07"/><circle cx="410" cy="360" r="2.5" fill="#ffffff" opacity="0.07"/><circle cx="410" cy="410" r="2.5" fill="#ffffff" opacity="0.07"/><circle cx="410" cy="460" r="2.5" fill="#ffffff" opacity="0.07"/><circle cx="410" cy="510" r="2.5" fill="#ffffff" opacity="0.07"/><circle cx="410" cy="560" r="2.5" fill="#ffffff" opacity="0.07"/><circle cx="460" cy="60" r="2.5" fill="#ffffff" opacity="0.07"/><circle cx="460" cy="110" r="2.5" fill="#ffffff" opacity="0.07"/><circle cx="460" cy="160" r="2.5" fill="#ffffff" opacity="0.07"/><circle cx="460" cy="210" r="2.5" fill="#ffffff" opacity="0.07"/><circle cx="460" cy="260" r="2.5" fill="#ffffff" opacity="0.07"/><circle cx="460" cy="310" r="2.5" fill="#ffffff" opacity="0.07"/><circle cx="460" cy="360" r="2.5" fill="#ffffff" opacity="0.07"/><circle cx="460" cy="410" r="2.5" fill="#ffffff" opacity="0.07"/><circle cx="460" cy="460" r="2.5" fill="#ffffff" opacity="0.07"/><circle cx="460" cy="510" r="2.5" fill="#ffffff" opacity="0.07"/><circle cx="460" cy="560" r="2.5" fill="#ffffff" opacity="0.07"/><circle cx="510" cy="60" r="2.5" fill="#ffffff" opacity="0.07"/><circle cx="510" cy="110" r="2.5" fill="#ffffff" opacity="0.07"/><circle cx="510" cy="160" r="2.5" fill="#ffffff" opacity="0.07"/><circle cx="510" cy="210" r="2.5" fill="#ffffff" opacity="0.07"/><circle cx="510" cy="260" r="2.5" fill="#ffffff" opacity="0.07"/><circle cx="510" cy="310" r="2.5" fill="#ffffff" opacity="0.07"/><circle cx="510" cy="360" r="2.5" fill="#ffffff" opacity="0.07"/><circle cx="510" cy="410" r="2.5" fill="#ffffff" opacity="0.07"/><circle cx="510" cy="460" r="2.5" fill="#ffffff" opacity="0.07"/><circle cx="510" cy="510" r="2.5" fill="#ffffff" opacity="0.07"/><circle cx="510" cy="560" r="2.5" fill="#ffffff" opacity="0.07"/><circle cx="560" cy="60" r="2.5" fill="#ffffff" opacity="0.07"/><circle cx="560" cy="110" r="2.5" fill="#ffffff" opacity="0.07"/><circle cx="560" cy="160" r="2.5" fill="#ffffff" opacity="0.07"/><circle cx="560" cy="210" r="2.5" fill="#ffffff" opacity="0.07"/><circle cx="560" cy="260" r="2.5" fill="#ffffff" opacity="0.07"/><circle cx="560" cy="310" r="2.5" fill="#ffffff" opacity="0.07"/><circle cx="560" cy="360" r="2.5" fill="#ffffff" opacity="0.07"/><circle cx="560" cy="410" r="2.5" fill="#ffffff" opacity="0.07"/><circle cx="560" cy="460" r="2.5" fill="#ffffff" opacity="0.07"/><circle cx="560" cy="510" r="2.5" fill="#ffffff" opacity="0.07"/><circle cx="560" cy="560" r="2.5" fill="#ffffff" opacity="0.07"/><circle cx="610" cy="60" r="2.5" fill="#ffffff" opacity="0.07"/><circle cx="610" cy="110" r="2.5" fill="#ffffff" opacity="0.07"/><circle cx="610" cy="160" r="2.5" fill="#ffffff" opacity="0.07"/><circle cx="610" cy="210" r="2.5" fill="#ffffff" opacity="0.07"/><circle cx="610" cy="260" r="2.5" fill="#ffffff" opacity="0.07"/><circle cx="610" cy="310" r="2.5" fill="#ffffff" opacity="0.07"/><circle cx="610" cy="360" r="2.5" fill="#ffffff" opacity="0.07"/><circle cx="610" cy="410" r="2.5" fill="#ffffff" opacity="0.07"/><circle cx="610" cy="460" r="2.5" fill="#ffffff" opacity="0.07"/><circle cx="610" cy="510" r="2.5" fill="#ffffff" opacity="0.07"/><circle cx="610" cy="560" r="2.5" fill="#ffffff" opacity="0.07"/><circle cx="660" cy="60" r="2.5" fill="#ffffff" opacity="0.07"/><circle cx="660" cy="110" r="2.5" fill="#ffffff" opacity="0.07"/><circle cx="660" cy="160" r="2.5" fill="#ffffff" opacity="0.07"/><circle cx="660" cy="210" r="2.5" fill="#ffffff" opacity="0.07"/><circle cx="660" cy="260" r="2.5" fill="#ffffff" opacity="0.07"/><circle cx="660" cy="310" r="2.5" fill="#ffffff" opacity="0.07"/><circle cx="660" cy="360" r="2.5" fill="#ffffff" opacity="0.07"/><circle cx="660" cy="410" r="2.5" fill="#ffffff" opacity="0.07"/><circle cx="660" cy="460" r="2.5" fill="#ffffff" opacity="0.07"/><circle cx="660" cy="510" r="2.5" fill="#ffffff" opacity="0.07"/><circle cx="660" cy="560" r="2.5" fill="#ffffff" opacity="0.07"/><circle cx="710" cy="60" r="2.5" fill="#ffffff" opacity="0.07"/><circle cx="710" cy="110" r="2.5" fill="#ffffff" opacity="0.07"/><circle cx="710" cy="160" r="2.5" fill="#ffffff" opacity="0.07"/><circle cx="710" cy="210" r="2.5" fill="#ffffff" opacity="0.07"/><circle cx="710" cy="260" r="2.5" fill="#ffffff" opacity="0.07"/><circle cx="710" cy="310" r="2.5" fill="#ffffff" opacity="0.07"/><circle cx="710" cy="360" r="2.5" fill="#ffffff" opacity="0.07"/><circle cx="710" cy="410" r="2.5" fill="#ffffff" opacity="0.07"/><circle cx="710" cy="460" r="2.5" fill="#ffffff" opacity="0.07"/><circle cx="710" cy="510" r="2.5" fill="#ffffff" opacity="0.07"/><circle cx="710" cy="560" r="2.5" fill="#ffffff" opacity="0.07"/><circle cx="760" cy="60" r="2.5" fill="#ffffff" opacity="0.07"/><circle cx="760" cy="110" r="2.5" fill="#ffffff" opacity="0.07"/><circle cx="760" cy="160" r="2.5" fill="#ffffff" opacity="0.07"/><circle cx="760" cy="210" r="2.5" fill="#ffffff" opacity="0.07"/><circle cx="760" cy="260" r="2.5" fill="#ffffff" opacity="0.07"/><circle cx="760" cy="310" r="2.5" fill="#ffffff" opacity="0.07"/><circle cx="760" cy="360" r="2.5" fill="#ffffff" opacity="0.07"/><circle cx="760" cy="410" r="2.5" fill="#ffffff" opacity="0.07"/><circle cx="760" cy="460" r="2.5" fill="#ffffff" opacity="0.07"/><circle cx="760" cy="510" r="2.5" fill="#ffffff" opacity="0.07"/><circle cx="760" cy="560" r="2.5" fill="#ffffff" opacity="0.07"/>
  <g transform="rotate(-8 400 300)">
    <rect x="170" y="175" width="460" height="250" rx="24" fill="#7b8ff7"/>
    <rect x="186" y="191" width="428" height="218" rx="16" fill="#0b0917"/>
    <rect x="216" y="336" width="120" height="12" rx="6" fill="#7b8ff7" opacity="0.7"/>
    <text x="400" y="292" font-family="Segoe UI, Arial, sans-serif" font-size="42" font-weight="700" fill="#ffffff" text-anchor="middle">Steam</text>
  </g>

</svg>
